<svg xmlns="http://www.w3.org/2000/svg" version="1.1" xmlns:xlink="http://www.w3.org/1999/xlink" xmlns:svgjs="http://svgjs.dev/svgjs" width="1440" height="560" preserveAspectRatio="none" viewBox="0 0 1440 560"><g mask="url(&quot;#SvgjsMask1501&quot;)" fill="none"><rect width="1440" height="560" x="0" y="0" fill="url(&quot;#SvgjsLinearGradient1502&quot;)"></rect><path d="M537.285,556.243C557.961,556.22,577.428,546.134,587.999,528.365C598.812,510.19,599.568,487.544,589.08,469.18C578.508,450.67,558.6,439.752,537.285,439.568C515.637,439.381,494.676,449.486,483.919,468.273C473.223,486.953,475.211,510.073,486.376,528.477C497.121,546.19,516.568,556.266,537.285,556.243" fill="rgba(10, 162, 60, 0.4)" class="triangle-float1"></path><path d="M672.798,405.041C725.536,403.676,760.653,355.201,784.008,307.896C804.337,266.719,804.676,220.474,784.219,179.36C760.918,132.531,724.917,88.805,672.798,84.386C613.509,79.359,550.878,104.636,523.015,157.211C496.378,207.472,521.727,265.24,551.15,313.922C579.237,360.395,618.515,406.446,672.798,405.041" fill="rgba(10, 162, 60, 0.4)" class="triangle-float2"></path><path d="M844.063,734.715C888.334,733.084,927.119,710.823,952.45,674.478C982.968,630.691,1014.074,575.374,987.294,529.206C960.558,483.114,897.322,485.957,844.063,487.621C794.807,489.16,741.814,496.006,715.536,537.695C687.833,581.643,692.517,639.497,720.902,683.008C746.976,722.977,796.373,736.472,844.063,734.715" fill="rgba(10, 162, 60, 0.4)" class="triangle-float2"></path><path d="M1123.112,627.233C1179.06,627.901,1219.884,579.733,1246.14,530.324C1270.529,484.43,1277.729,430.037,1251.855,384.964C1225.878,339.712,1175.289,315.742,1123.112,316.009C1071.421,316.273,1021.827,341.134,996.629,386.269C971.999,430.386,981.59,482.706,1005.073,527.444C1030.738,576.339,1067.894,626.573,1123.112,627.233" fill="rgba(10, 162, 60, 0.4)" class="triangle-float1"></path><path d="M369.084,461.499C425.258,462.83,483.978,449.667,515.007,402.821C549.12,351.32,556.225,281.744,522.375,230.07C490.809,181.883,426.687,180.67,369.084,180.064C309.888,179.442,241.374,176.518,210.108,226.787C177.812,278.713,200.377,345.547,234.67,396.176C264.612,440.382,315.707,460.234,369.084,461.499" fill="rgba(10, 162, 60, 0.4)" class="triangle-float1"></path><path d="M263.316,568.213C308.115,567.935,351.901,548.86,374.466,510.158C397.184,471.193,392.731,423.344,370.738,383.966C348.13,343.487,309.672,310.226,263.316,311.147C218.168,312.044,185.301,348.804,163.038,388.091C141.165,426.688,128.169,472.792,149.748,511.554C171.804,551.171,217.974,568.495,263.316,568.213" fill="rgba(10, 162, 60, 0.4)" class="triangle-float2"></path><path d="M371.115,269.935C390.406,269.404,403.952,252.32,412.211,234.879C419.233,220.049,417.875,203.1,409.421,189.036C401.242,175.428,386.985,166.979,371.115,166.508C354.334,166.01,337.692,172.491,328.652,186.637C318.899,201.899,317.674,221.121,325.9,237.257C334.952,255.014,351.192,270.484,371.115,269.935" fill="rgba(10, 162, 60, 0.4)" class="triangle-float3"></path><path d="M188.158,285.454C211.664,284.265,227.547,263.861,238.601,243.082C248.833,223.848,253.824,201.202,243.055,182.264C232.181,163.14,210.156,154.608,188.158,154.372C165.681,154.131,143.268,162.112,131.183,181.065C118.183,201.454,116.444,227.45,128.029,248.675C140.093,270.779,163.008,286.726,188.158,285.454" fill="rgba(10, 162, 60, 0.4)" class="triangle-float3"></path><path d="M1201.216,156.808C1236.747,157.678,1273.508,144.154,1290.504,112.939C1306.948,82.738,1294.199,47.412,1276.99,17.64C1259.801,-12.097,1235.563,-41.401,1201.216,-41.529C1166.714,-41.658,1140.984,-13.215,1124.454,17.07C1108.737,45.866,1103.4,79.99,1119.195,108.743C1135.547,138.511,1167.262,155.976,1201.216,156.808" fill="rgba(10, 162, 60, 0.4)" class="triangle-float3"></path></g><defs><mask id="SvgjsMask1501"><rect width="1440" height="560" fill="#ffffff"></rect></mask><linearGradient x1="15.28%" y1="-39.29%" x2="84.72%" y2="139.29%" gradientUnits="userSpaceOnUse" id="SvgjsLinearGradient1502"><stop stop-color="rgba(32, 94, 58, 1)" offset="0"></stop><stop stop-color="rgba(52, 107, 25, 1)" offset="1"></stop></linearGradient><style>
                @keyframes float1 {
                    0%{transform: translate(0, 0)}
                    50%{transform: translate(-10px, 0)}
                    100%{transform: translate(0, 0)}
                }

                .triangle-float1 {
                    animation: float1 5s infinite;
                }

                @keyframes float2 {
                    0%{transform: translate(0, 0)}
                    50%{transform: translate(-5px, -5px)}
                    100%{transform: translate(0, 0)}
                }

                .triangle-float2 {
                    animation: float2 4s infinite;
                }

                @keyframes float3 {
                    0%{transform: translate(0, 0)}
                    50%{transform: translate(0, -10px)}
                    100%{transform: translate(0, 0)}
                }

                .triangle-float3 {
                    animation: float3 6s infinite;
                }
            </style></defs></svg>