<svg xmlns="http://www.w3.org/2000/svg" xmlns:xlink="http://www.w3.org/1999/xlink" width="500" zoomAndPan="magnify" viewBox="0 0 375 374.999991" height="500" preserveAspectRatio="xMidYMid meet" version="1.0"><defs><clipPath id="fcbd08966e"><path d="M 2.652344 75 L 372.402344 75 L 372.402344 299.910156 L 2.652344 299.910156 Z M 2.652344 75 " clip-rule="nonzero"/></clipPath></defs><g clip-path="url(#fcbd08966e)"><path fill="#000000" d="M 357.671875 97.210938 C 362.230469 99.6875 367.679688 100.382812 371.941406 103.652344 C 363.816406 102.664062 355.6875 101.574219 347.5625 100.878906 C 305.140625 97.113281 269.761719 111.878906 240.125 141.8125 C 236.957031 145.082031 234.875 144.980469 232.496094 141.316406 C 230.613281 138.441406 228.332031 135.765625 226.25 132.988281 C 196.121094 94.335938 156.179688 78.082031 107.519531 80.660156 C 114.851562 77.289062 130.117188 74.910156 143.992188 75.210938 C 178.976562 75.902344 209.105469 88.292969 234.578125 112.277344 C 237.746094 115.25 239.53125 115.25 243.101562 112.96875 C 277.292969 91.164062 314.0625 85.417969 353.308594 96.21875 C 354.796875 96.519531 356.183594 96.816406 357.671875 97.210938 Z M 372.238281 103.652344 L 371.941406 103.652344 L 372.140625 103.753906 Z M 195.132812 191.960938 L 195.03125 191.859375 Z M 180.660156 189.183594 C 151.027344 187.101562 125.65625 196.519531 104.347656 217.035156 C 102.167969 219.214844 100.878906 219.511719 98.203125 217.828125 C 76.597656 204.347656 53.304688 199.886719 28.132812 204.347656 C 18.121094 206.132812 7.519531 209.996094 2.761719 213.464844 C 37.152344 204.644531 67.972656 210.492188 95.128906 233.785156 C 97.011719 235.46875 98.996094 237.054688 100.777344 238.839844 C 103.058594 241.117188 104.546875 240.820312 106.328125 238.046875 C 123.179688 212.476562 146.371094 196.71875 177.191406 193.347656 C 183.140625 192.652344 189.085938 192.355469 195.03125 191.859375 C 191.464844 190.078125 187.5 190.472656 183.933594 189.285156 C 182.742188 189.285156 181.75 189.285156 180.660156 189.183594 Z M 320.601562 276.597656 C 304.648438 273.726562 290.277344 277.195312 277.390625 287.105469 C 276.003906 288.09375 275.410156 288.195312 274.023438 287.105469 C 263.515625 278.582031 250.234375 274.417969 236.757812 275.507812 C 231.207031 275.90625 225.261719 277.390625 222.484375 278.976562 C 241.710938 276.203125 258.164062 281.355469 271.445312 295.628906 C 272.335938 296.617188 273.328125 297.609375 274.21875 298.699219 C 275.308594 300.085938 276.101562 299.988281 277.292969 298.601562 C 287.996094 285.71875 301.574219 278.582031 318.523438 278.582031 C 321.792969 278.582031 325.0625 278.78125 328.332031 278.78125 C 326.550781 277.589844 324.371094 277.589844 322.386719 276.699219 C 321.691406 276.796875 321.199219 276.699219 320.601562 276.597656 Z M 328.332031 278.976562 L 328.234375 278.976562 Z M 328.332031 278.976562 " fill-opacity="1" fill-rule="nonzero"/></g></svg>