<svg id="visual" viewBox="0 0 2000 1500" width="2000" height="1500" xmlns="http://www.w3.org/2000/svg" xmlns:xlink="http://www.w3.org/1999/xlink" version="1.1"><g transform="translate(1062.603109583909 777.2006657260507)"><path d="M241 -431.2C328.3 -367 426.1 -334.7 478 -268.2C530 -201.7 536 -100.8 523.3 -7.3C510.6 86.2 479.2 172.3 449.4 277.3C419.7 382.2 391.6 505.9 317 551.5C242.3 597.1 121.2 564.5 29.3 513.7C-62.5 462.9 -125 393.8 -211.6 355.2C-298.2 316.5 -408.9 308.3 -502.7 254.1C-596.4 200 -673.2 100 -650 13.4C-626.7 -73.2 -503.5 -146.3 -432.7 -240.3C-362 -334.3 -343.7 -449 -280.4 -527.1C-217 -605.2 -108.5 -646.6 -15.8 -619.2C76.8 -591.7 153.7 -495.5 241 -431.2" fill="#3d9705"></path></g></svg>