<svg id="visual" viewBox="0 0 2000 1500" width="2000" height="1500" xmlns="http://www.w3.org/2000/svg" xmlns:xlink="http://www.w3.org/1999/xlink" version="1.1"><g transform="translate(1000 750)"><path d="M358.3 -620.5C466.5 -558 558 -466.5 620.5 -358.3C683 -250 716.5 -125 716.5 0C716.5 125 683 250 620.5 358.3C558 466.5 466.5 558 358.3 620.5C250 683 125 716.5 0 716.5C-125 716.5 -250 683 -358.3 620.5C-466.5 558 -558 466.5 -620.5 358.3C-683 250 -716.5 125 -716.5 0C-716.5 -125 -683 -250 -620.5 -358.3C-558 -466.5 -466.5 -558 -358.3 -620.5C-250 -683 -125 -716.5 0 -716.5C125 -716.5 250 -683 358.3 -620.5" fill="#3d9705"></path></g></svg>