<svg id="visual" viewBox="0 0 900 600" width="900" height="600" xmlns="http://www.w3.org/2000/svg" xmlns:xlink="http://www.w3.org/1999/xlink" version="1.1"><rect x="0" y="0" width="900" height="600" fill="#435e33"></rect><defs><linearGradient id="grad1_0" x1="33.3%" y1="100%" x2="100%" y2="0%"><stop offset="20%" stop-color="#85bb65" stop-opacity="1"></stop><stop offset="80%" stop-color="#85bb65" stop-opacity="1"></stop></linearGradient></defs><defs><linearGradient id="grad1_1" x1="33.3%" y1="100%" x2="100%" y2="0%"><stop offset="20%" stop-color="#85bb65" stop-opacity="1"></stop><stop offset="80%" stop-color="#77a85b" stop-opacity="1"></stop></linearGradient></defs><defs><linearGradient id="grad1_2" x1="33.3%" y1="100%" x2="100%" y2="0%"><stop offset="20%" stop-color="#6a9450" stop-opacity="1"></stop><stop offset="80%" stop-color="#77a85b" stop-opacity="1"></stop></linearGradient></defs><defs><linearGradient id="grad1_3" x1="33.3%" y1="100%" x2="100%" y2="0%"><stop offset="20%" stop-color="#6a9450" stop-opacity="1"></stop><stop offset="80%" stop-color="#5c8246" stop-opacity="1"></stop></linearGradient></defs><defs><linearGradient id="grad1_4" x1="33.3%" y1="100%" x2="100%" y2="0%"><stop offset="20%" stop-color="#50703d" stop-opacity="1"></stop><stop offset="80%" stop-color="#5c8246" stop-opacity="1"></stop></linearGradient></defs><defs><linearGradient id="grad1_5" x1="33.3%" y1="100%" x2="100%" y2="0%"><stop offset="20%" stop-color="#50703d" stop-opacity="1"></stop><stop offset="80%" stop-color="#435e33" stop-opacity="1"></stop></linearGradient></defs><defs><linearGradient id="grad2_0" x1="0%" y1="100%" x2="66.7%" y2="0%"><stop offset="20%" stop-color="#85bb65" stop-opacity="1"></stop><stop offset="80%" stop-color="#85bb65" stop-opacity="1"></stop></linearGradient></defs><defs><linearGradient id="grad2_1" x1="0%" y1="100%" x2="66.7%" y2="0%"><stop offset="20%" stop-color="#77a85b" stop-opacity="1"></stop><stop offset="80%" stop-color="#85bb65" stop-opacity="1"></stop></linearGradient></defs><defs><linearGradient id="grad2_2" x1="0%" y1="100%" x2="66.7%" y2="0%"><stop offset="20%" stop-color="#77a85b" stop-opacity="1"></stop><stop offset="80%" stop-color="#6a9450" stop-opacity="1"></stop></linearGradient></defs><defs><linearGradient id="grad2_3" x1="0%" y1="100%" x2="66.7%" y2="0%"><stop offset="20%" stop-color="#5c8246" stop-opacity="1"></stop><stop offset="80%" stop-color="#6a9450" stop-opacity="1"></stop></linearGradient></defs><defs><linearGradient id="grad2_4" x1="0%" y1="100%" x2="66.7%" y2="0%"><stop offset="20%" stop-color="#5c8246" stop-opacity="1"></stop><stop offset="80%" stop-color="#50703d" stop-opacity="1"></stop></linearGradient></defs><defs><linearGradient id="grad2_5" x1="0%" y1="100%" x2="66.7%" y2="0%"><stop offset="20%" stop-color="#435e33" stop-opacity="1"></stop><stop offset="80%" stop-color="#50703d" stop-opacity="1"></stop></linearGradient></defs><g transform="translate(900, 600)"><path d="M-459.7 0C-461.2 -68.2 -462.7 -136.5 -424.7 -175.9C-386.8 -215.4 -309.4 -226 -264.5 -264.5C-219.5 -302.9 -207 -369.3 -168.4 -406.5C-129.7 -443.7 -64.9 -451.7 0 -459.7L0 0Z" fill="#496738"></path><path d="M-383.1 0C-384.3 -56.9 -385.6 -113.7 -353.9 -146.6C-322.3 -179.5 -257.8 -188.3 -220.4 -220.4C-182.9 -252.5 -172.5 -307.8 -140.3 -338.8C-108.1 -369.7 -54 -376.4 0 -383.1L0 0Z" fill="#567941"></path><path d="M-306.5 0C-307.5 -45.5 -308.4 -91 -283.1 -117.3C-257.8 -143.6 -206.3 -150.6 -176.3 -176.3C-146.4 -202 -138 -246.2 -112.3 -271C-86.5 -295.8 -43.2 -301.1 0 -306.5L0 0Z" fill="#638b4b"></path><path d="M-229.9 0C-230.6 -34.1 -231.3 -68.2 -212.4 -88C-193.4 -107.7 -154.7 -113 -132.2 -132.2C-109.8 -151.5 -103.5 -184.7 -84.2 -203.3C-64.9 -221.8 -32.4 -225.9 0 -229.9L0 0Z" fill="#709e55"></path><path d="M-153.2 0C-153.7 -22.7 -154.2 -45.5 -141.6 -58.6C-128.9 -71.8 -103.1 -75.3 -88.2 -88.2C-73.2 -101 -69 -123.1 -56.1 -135.5C-43.2 -147.9 -21.6 -150.6 0 -153.2L0 0Z" fill="#7eb160"></path><path d="M-76.6 0C-76.9 -11.4 -77.1 -22.7 -70.8 -29.3C-64.5 -35.9 -51.6 -37.7 -44.1 -44.1C-36.6 -50.5 -34.5 -61.6 -28.1 -67.8C-21.6 -73.9 -10.8 -75.3 0 -76.6L0 0Z" fill="#85bb65"></path></g><g transform="translate(0, 0)"><path d="M459.7 0C454.8 60.6 449.8 121.2 424.7 175.9C399.6 230.7 354.4 279.6 303.3 303.3C252.3 327.1 195.4 325.5 143.9 347.4C92.4 369.2 46.2 414.5 0 459.7L0 0Z" fill="#496738"></path><path d="M383.1 0C379 50.5 374.8 101 353.9 146.6C333 192.2 295.3 233 252.8 252.8C210.2 272.5 162.8 271.3 119.9 289.5C77 307.7 38.5 345.4 0 383.1L0 0Z" fill="#567941"></path><path d="M306.5 0C303.2 40.4 299.9 80.8 283.1 117.3C266.4 153.8 236.3 186.4 202.2 202.2C168.2 218 130.3 217 95.9 231.6C61.6 246.2 30.8 276.3 0 306.5L0 0Z" fill="#638b4b"></path><path d="M229.9 0C227.4 30.3 224.9 60.6 212.4 88C199.8 115.3 177.2 139.8 151.7 151.7C126.1 163.5 97.7 162.8 71.9 173.7C46.2 184.6 23.1 207.2 0 229.9L0 0Z" fill="#709e55"></path><path d="M153.2 0C151.6 20.2 149.9 40.4 141.6 58.6C133.2 76.9 118.1 93.2 101.1 101.1C84.1 109 65.1 108.5 48 115.8C30.8 123.1 15.4 138.2 0 153.2L0 0Z" fill="#7eb160"></path><path d="M76.6 0C75.8 10.1 75 20.2 70.8 29.3C66.6 38.4 59.1 46.6 50.6 50.6C42 54.5 32.6 54.3 24 57.9C15.4 61.5 7.7 69.1 0 76.6L0 0Z" fill="#85bb65"></path></g></svg>