<svg id="visual" viewBox="0 0 2000 1500" width="2000" height="1500" xmlns="http://www.w3.org/2000/svg" xmlns:xlink="http://www.w3.org/1999/xlink" version="1.1"><g transform="translate(949.8729641559135 757.4493737830403)"><path d="M285.2 -488.7C382.9 -437.6 484.6 -388 562.7 -306.9C640.9 -225.7 695.4 -112.8 703.7 4.7C711.9 122.3 673.8 244.7 609.2 349.3C544.6 454 453.6 540.9 347.6 583.7C241.7 626.6 120.8 625.3 11 606.2C-98.8 587.2 -197.7 550.4 -300.7 505.9C-403.8 461.4 -511.1 409.2 -562.1 323.6C-613.2 238 -608.1 119 -597.9 5.9C-587.6 -107.2 -572.2 -214.3 -533.3 -321C-494.4 -427.7 -432 -533.8 -339.1 -587.7C-246.3 -641.7 -123.2 -643.3 -14.7 -617.9C93.8 -592.4 187.5 -539.8 285.2 -488.7" fill="#3d9705"></path></g></svg>