<svg id="visual" viewBox="0 0 900 600" width="900" height="600" xmlns="http://www.w3.org/2000/svg" xmlns:xlink="http://www.w3.org/1999/xlink" version="1.1"><g transform="translate(436.6044417784012 323.38724389610843)"><path d="M112.7 -199.4C148.1 -174.8 180.1 -148.6 196.5 -115.2C212.8 -81.7 213.4 -40.8 220.9 4.3C228.4 49.5 242.8 99 231 140.3C219.1 181.6 181.1 214.6 138.2 214.9C95.3 215.1 47.7 182.6 6.7 171C-34.3 159.5 -68.7 168.9 -98.4 161.1C-128.1 153.3 -153.3 128.1 -174.6 98.4C-195.9 68.7 -213.5 34.3 -207.5 3.4C-201.6 -27.5 -172.3 -55 -158.8 -98.3C-145.3 -141.6 -147.6 -200.7 -123.8 -232C-100 -263.2 -50 -266.6 -5.7 -256.8C38.7 -247 77.3 -223.9 112.7 -199.4" fill="#3d9705"></path></g></svg>