<svg id="visual" viewBox="0 0 900 600" width="900" height="600" xmlns="http://www.w3.org/2000/svg" xmlns:xlink="http://www.w3.org/1999/xlink" version="1.1"><rect x="0" y="0" width="900" height="600" fill="#262e22"></rect><defs><linearGradient id="grad1_0" x1="33.3%" y1="100%" x2="100%" y2="0%"><stop offset="20%" stop-color="#262e22" stop-opacity="1"></stop><stop offset="80%" stop-color="#262e22" stop-opacity="1"></stop></linearGradient></defs><defs><linearGradient id="grad2_0" x1="0%" y1="100%" x2="66.7%" y2="0%"><stop offset="20%" stop-color="#262e22" stop-opacity="1"></stop><stop offset="80%" stop-color="#262e22" stop-opacity="1"></stop></linearGradient></defs><g transform="translate(900, 600)"><path d="M-513.8 0C-474.9 -30.4 -436 -60.9 -429.9 -98.1C-423.8 -135.4 -450.5 -179.4 -448.7 -216.1C-446.8 -252.7 -416.4 -281.9 -391.7 -312.4C-366.9 -342.8 -347.8 -374.6 -320.3 -401.7C-292.9 -428.8 -257 -451.4 -218.2 -453.2C-179.5 -455 -137.9 -436 -101 -442.6C-64.2 -449.3 -32.1 -481.5 0 -513.8L0 0Z" fill="#85bb65"></path></g><g transform="translate(0, 0)"><path d="M513.8 0C449.9 26.1 386.1 52.2 371.4 84.8C356.8 117.3 391.4 156.3 392.8 189.2C394.2 222.1 362.5 248.9 328.4 261.9C294.3 274.8 257.8 274 238.8 299.4C219.8 324.9 218.2 376.7 200.9 417.1C183.6 457.6 150.4 486.7 114.3 500.9C78.2 515.1 39.1 514.5 0 513.8L0 0Z" fill="#85bb65"></path></g></svg>