<svg xmlns="http://www.w3.org/2000/svg" xmlns:xlink="http://www.w3.org/1999/xlink" width="500" zoomAndPan="magnify" viewBox="0 0 375 374.999991" height="500" preserveAspectRatio="xMidYMid meet" version="1.0"><defs><g/><clipPath id="7427a4efe4"><path d="M 64.171875 142.632812 L 154 142.632812 L 154 232.632812 L 64.171875 232.632812 Z M 64.171875 142.632812 " clip-rule="nonzero"/></clipPath></defs><g clip-path="url(#7427a4efe4)"><path fill="#0e1514" d="M 153.3125 174.996094 C 153.316406 174.996094 153.316406 174.996094 153.316406 174.996094 C 154.1875 174.125 154.1875 172.714844 153.316406 171.84375 L 132.046875 150.574219 C 127.269531 145.796875 119.492188 145.796875 114.714844 150.574219 L 107.625 157.664062 C 107.480469 157.808594 107.355469 157.964844 107.21875 158.117188 C 106.964844 155.363281 105.789062 152.679688 103.6875 150.574219 L 96.597656 143.484375 C 96.558594 143.445312 96.515625 143.417969 96.472656 143.382812 C 96.402344 143.316406 96.328125 143.25 96.25 143.199219 C 95.382812 142.628906 94.210938 142.722656 93.449219 143.484375 L 72.175781 164.753906 C 67.398438 169.53125 67.398438 177.308594 72.175781 182.082031 L 79.265625 189.171875 C 79.265625 189.171875 79.265625 189.171875 79.265625 189.175781 C 79.410156 189.320312 79.566406 189.445312 79.714844 189.582031 C 76.964844 189.835938 74.28125 191.011719 72.175781 193.113281 L 65.089844 200.199219 C 65.089844 200.203125 65.089844 200.203125 65.085938 200.203125 C 64.21875 201.074219 64.21875 202.484375 65.085938 203.351562 L 86.355469 224.621094 C 88.671875 226.9375 91.75 228.210938 95.019531 228.210938 C 98.296875 228.210938 101.371094 226.9375 103.6875 224.621094 L 110.777344 217.53125 C 110.917969 217.390625 111.046875 217.230469 111.183594 217.082031 C 111.4375 219.835938 112.613281 222.519531 114.714844 224.621094 L 121.800781 231.707031 C 121.800781 231.707031 121.804688 231.710938 121.804688 231.710938 C 122.242188 232.148438 122.808594 232.363281 123.378906 232.363281 C 123.949219 232.363281 124.519531 232.148438 124.957031 231.710938 L 146.226562 210.441406 C 151.003906 205.664062 151.003906 197.890625 146.226562 193.109375 L 139.136719 186.019531 C 138.988281 185.875 138.835938 185.75 138.683594 185.613281 C 141.4375 185.363281 144.121094 184.1875 146.226562 182.082031 Z M 128.898438 153.722656 L 148.589844 173.417969 L 143.078125 178.933594 C 140.035156 181.972656 135.085938 181.972656 132.046875 178.933594 C 132.042969 178.929688 132.039062 178.929688 132.035156 178.925781 L 124.972656 171.863281 C 124.964844 171.855469 124.960938 171.847656 124.957031 171.84375 C 120.78125 167.667969 114.320312 167.144531 109.570312 170.261719 C 107.824219 167.277344 108.21875 163.375 110.777344 160.8125 L 117.867188 153.722656 C 120.90625 150.683594 125.855469 150.683594 128.898438 153.722656 Z M 143.074219 207.292969 L 123.382812 226.988281 L 117.867188 221.472656 C 114.828125 218.429688 114.828125 213.484375 117.867188 210.441406 C 117.871094 210.4375 117.871094 210.4375 117.875 210.429688 L 124.945312 203.363281 C 124.949219 203.359375 124.953125 203.355469 124.957031 203.351562 C 129.132812 199.179688 129.660156 192.71875 126.539062 187.964844 C 129.523438 186.21875 133.425781 186.617188 135.984375 189.175781 L 143.074219 196.265625 C 146.117188 199.304688 146.117188 204.253906 143.074219 207.292969 Z M 96.601562 200.203125 C 96.601562 200.203125 96.601562 200.199219 96.597656 200.199219 L 89.507812 193.109375 C 89.5 193.105469 89.492188 193.097656 89.484375 193.089844 C 89.347656 192.953125 89.203125 192.835938 89.058594 192.707031 C 91.164062 192.515625 93.152344 191.792969 94.875 190.601562 L 105.820312 201.546875 C 104.695312 202.160156 103.429688 202.484375 102.109375 202.484375 C 100.03125 202.488281 98.074219 201.675781 96.601562 200.203125 Z M 75.328125 167.902344 L 95.019531 148.210938 L 100.535156 153.722656 C 103.578125 156.765625 103.578125 161.710938 100.535156 164.753906 C 100.53125 164.757812 100.53125 164.761719 100.527344 164.765625 L 93.457031 171.835938 C 93.453125 171.839844 93.453125 171.839844 93.445312 171.84375 C 91.128906 174.160156 89.855469 177.234375 89.855469 180.507812 C 89.855469 182.933594 90.558594 185.253906 91.867188 187.234375 C 90.683594 187.929688 89.339844 188.304688 87.929688 188.304688 C 85.847656 188.304688 83.890625 187.496094 82.417969 186.019531 C 82.417969 186.019531 82.417969 186.019531 82.414062 186.019531 L 75.328125 178.929688 C 72.289062 175.890625 72.289062 170.945312 75.328125 167.902344 Z M 114.714844 182.085938 L 120.230469 187.601562 L 114.714844 193.113281 L 109.199219 198.628906 L 103.6875 193.113281 L 98.171875 187.601562 L 103.6875 182.085938 L 109.199219 176.570312 Z M 106.203125 173.269531 L 95.253906 184.21875 C 94.640625 183.09375 94.316406 181.828125 94.316406 180.511719 C 94.316406 178.429688 95.125 176.476562 96.59375 175.003906 C 96.59375 175 96.597656 175 96.601562 174.996094 L 103.691406 167.90625 C 103.695312 167.898438 103.703125 167.890625 103.710938 167.882812 C 103.847656 167.742188 103.96875 167.597656 104.097656 167.453125 C 104.28125 169.503906 104.988281 171.507812 106.203125 173.269531 Z M 112.203125 201.925781 L 123.148438 190.980469 C 124.742188 193.933594 124.300781 197.703125 121.8125 200.195312 C 121.808594 200.199219 121.804688 200.199219 121.800781 200.203125 L 114.710938 207.292969 C 114.703125 207.300781 114.699219 207.308594 114.691406 207.316406 C 114.554688 207.453125 114.4375 207.597656 114.308594 207.742188 C 114.121094 205.636719 113.394531 203.648438 112.203125 201.925781 Z M 123.53125 184.597656 L 112.585938 173.652344 C 115.535156 172.058594 119.304688 172.503906 121.796875 174.988281 C 121.800781 174.992188 121.800781 174.996094 121.804688 174.996094 L 128.894531 182.085938 C 128.902344 182.09375 128.910156 182.101562 128.917969 182.105469 C 129.058594 182.242188 129.203125 182.367188 129.347656 182.496094 C 127.296875 182.679688 125.292969 183.386719 123.53125 184.597656 Z M 89.507812 221.472656 L 69.8125 201.78125 L 75.328125 196.265625 C 78.371094 193.226562 83.316406 193.226562 86.359375 196.265625 C 86.363281 196.269531 86.363281 196.269531 86.371094 196.273438 L 93.4375 203.34375 C 93.441406 203.347656 93.445312 203.347656 93.449219 203.351562 C 95.761719 205.667969 98.839844 206.941406 102.113281 206.941406 C 104.539062 206.941406 106.859375 206.238281 108.835938 204.933594 C 109.53125 206.113281 109.910156 207.460938 109.910156 208.867188 C 109.910156 210.953125 109.097656 212.910156 107.625 214.382812 L 100.535156 221.472656 C 97.496094 224.511719 92.546875 224.511719 89.507812 221.472656 Z M 89.507812 221.472656 " fill-opacity="1" fill-rule="nonzero"/></g><g fill="#0e1514" fill-opacity="1"><g transform="translate(173.108943, 197.909416)"><g><path d="M 6.65625 -3.621094 L 6.65625 -19.753906 L 2.554688 -19.753906 L 2.554688 0 L 12.851562 0 L 12.851562 -3.621094 Z M 6.65625 -3.621094 "/></g></g></g><g fill="#0e1514" fill-opacity="1"><g transform="translate(185.97285, 197.909416)"><g><path d="M 15.257812 -7.230469 C 15.242188 -12.152344 12.277344 -14.355469 8.296875 -14.355469 C 3.964844 -14.355469 0.914062 -11.648438 0.914062 -7.027344 C 0.914062 -2.40625 3.882812 0.273438 8.421875 0.273438 C 11.578125 0.273438 14.109375 -1.351562 15.039062 -4.195312 L 11.429688 -4.730469 C 10.894531 -3.484375 9.800781 -2.828125 8.394531 -2.828125 C 6.519531 -2.828125 4.960938 -3.949219 4.796875 -6.289062 L 15.214844 -6.289062 Z M 8.324219 -11.566406 C 10.007812 -11.566406 11.265625 -10.566406 11.386719 -8.597656 L 4.867188 -8.597656 C 5.179688 -10.664062 6.453125 -11.566406 8.324219 -11.566406 Z M 8.324219 -11.566406 "/></g></g></g><g fill="#0e1514" fill-opacity="1"><g transform="translate(201.625432, 197.909416)"><g><path d="M 13.5625 -3.417969 L 13.5625 -9.253906 C 13.5625 -13.492188 10.472656 -14.328125 7.65625 -14.328125 C 3.921875 -14.328125 1.789062 -13 1.203125 -10.089844 L 4.6875 -9.460938 C 4.933594 -11.046875 6.015625 -11.605469 7.4375 -11.605469 C 8.542969 -11.605469 9.800781 -11.222656 9.800781 -9.84375 C 9.800781 -9.269531 9.445312 -8.925781 8.449219 -8.695312 L 6.136719 -8.175781 C 3.199219 -7.53125 1.023438 -6.546875 1.023438 -3.636719 C 1.023438 -0.710938 3.183594 0.273438 5.398438 0.273438 C 7.039062 0.273438 8.859375 -0.257812 9.910156 -1.53125 L 10.226562 0 L 13.902344 0 L 13.902344 -0.382812 C 13.65625 -1.175781 13.5625 -1.84375 13.5625 -3.417969 Z M 6.574219 -2.199219 C 5.578125 -2.199219 4.785156 -2.707031 4.785156 -3.800781 C 4.785156 -4.867188 5.425781 -5.386719 6.671875 -5.6875 L 10.007812 -6.628906 C 10.007812 -3.59375 8.460938 -2.199219 6.574219 -2.199219 Z M 6.574219 -2.199219 "/></g></g></g><g fill="#0e1514" fill-opacity="1"><g transform="translate(216.416811, 197.909416)"><g><path d="M 9.199219 -17.855469 L 9.964844 -17.855469 L 9.964844 -21 L 9.199219 -21 C 5.699219 -21 3.019531 -20.316406 3.019531 -15.570312 L 3.019531 -14.054688 L 0.273438 -14.054688 L 0.273438 -11.03125 L 3.019531 -11.03125 L 3.019531 0 L 6.945312 0 L 6.945312 -11.03125 L 9.964844 -11.03125 L 9.964844 -14.054688 L 6.945312 -14.054688 L 6.945312 -15.558594 C 6.945312 -17.910156 8.460938 -17.855469 9.199219 -17.855469 Z M 9.199219 -17.855469 "/></g></g></g><g fill="#0e1514" fill-opacity="1"><g transform="translate(226.013603, 197.909416)"><g><path d="M 6.65625 -3.621094 L 6.65625 -19.753906 L 2.554688 -19.753906 L 2.554688 0 L 12.851562 0 L 12.851562 -3.621094 Z M 6.65625 -3.621094 "/></g></g></g><g fill="#0e1514" fill-opacity="1"><g transform="translate(238.87751, 197.909416)"><g><path d="M 4.046875 -16.160156 C 5.261719 -16.160156 6.300781 -17.171875 6.300781 -18.429688 C 6.300781 -19.671875 5.261719 -20.683594 4.046875 -20.683594 C 2.800781 -20.683594 1.761719 -19.671875 1.761719 -18.429688 C 1.761719 -17.171875 2.800781 -16.160156 4.046875 -16.160156 Z M 2.035156 0 L 6 0 L 6 -14.054688 L 2.035156 -14.054688 Z M 2.035156 0 "/></g></g></g><g fill="#0e1514" fill-opacity="1"><g transform="translate(246.355451, 197.909416)"><g><path d="M 10.335938 -14.328125 C 8.476562 -14.328125 6.957031 -13.65625 5.972656 -12.496094 L 5.972656 -14.054688 L 2.035156 -14.054688 L 2.035156 0 L 5.972656 0 L 5.972656 -7.75 C 6 -10.347656 7.476562 -11.167969 9.105469 -11.167969 C 10.457031 -11.167969 11.621094 -10.484375 11.621094 -8.613281 L 11.621094 0 L 15.570312 0 L 15.570312 -9.460938 C 15.570312 -12.578125 13.710938 -14.328125 10.335938 -14.328125 Z M 10.335938 -14.328125 "/></g></g></g><g fill="#0e1514" fill-opacity="1"><g transform="translate(263.142645, 197.909416)"><g><path d="M 10.074219 -7.53125 L 15.625 -14.054688 L 11.167969 -14.054688 L 6.726562 -8.640625 L 6.015625 -8.640625 L 6.015625 -21 L 2.035156 -21 L 2.035156 0 L 6.015625 0 L 6.015625 -5.90625 L 6.820312 -5.90625 L 11.359375 0 L 16.144531 0 Z M 10.074219 -7.53125 "/></g></g></g></svg>