<svg id="visual" viewBox="0 0 900 600" width="900" height="600" xmlns="http://www.w3.org/2000/svg" xmlns:xlink="http://www.w3.org/1999/xlink" version="1.1"><rect x="0" y="0" width="900" height="600" fill="#d9e7be"></rect><path d="M0 308L16.7 313.8C33.3 319.7 66.7 331.3 100 342.5C133.3 353.7 166.7 364.3 200 359.7C233.3 355 266.7 335 300 339C333.3 343 366.7 371 400 379.3C433.3 387.7 466.7 376.3 500 368.7C533.3 361 566.7 357 600 362C633.3 367 666.7 381 700 384.8C733.3 388.7 766.7 382.3 800 373.7C833.3 365 866.7 354 883.3 348.5L900 343L900 601L883.3 601C866.7 601 833.3 601 800 601C766.7 601 733.3 601 700 601C666.7 601 633.3 601 600 601C566.7 601 533.3 601 500 601C466.7 601 433.3 601 400 601C366.7 601 333.3 601 300 601C266.7 601 233.3 601 200 601C166.7 601 133.3 601 100 601C66.7 601 33.3 601 16.7 601L0 601Z" fill="#85bb65"></path><path d="M0 355L16.7 360.7C33.3 366.3 66.7 377.7 100 380.7C133.3 383.7 166.7 378.3 200 379.3C233.3 380.3 266.7 387.7 300 391.7C333.3 395.7 366.7 396.3 400 398.5C433.3 400.7 466.7 404.3 500 409.2C533.3 414 566.7 420 600 412C633.3 404 666.7 382 700 379.7C733.3 377.3 766.7 394.7 800 402.5C833.3 410.3 866.7 408.7 883.3 407.8L900 407L900 601L883.3 601C866.7 601 833.3 601 800 601C766.7 601 733.3 601 700 601C666.7 601 633.3 601 600 601C566.7 601 533.3 601 500 601C466.7 601 433.3 601 400 601C366.7 601 333.3 601 300 601C266.7 601 233.3 601 200 601C166.7 601 133.3 601 100 601C66.7 601 33.3 601 16.7 601L0 601Z" fill="#6a9551"></path><path d="M0 435L16.7 437.5C33.3 440 66.7 445 100 443C133.3 441 166.7 432 200 433.8C233.3 435.7 266.7 448.3 300 445.3C333.3 442.3 366.7 423.7 400 420.2C433.3 416.7 466.7 428.3 500 438.8C533.3 449.3 566.7 458.7 600 462.2C633.3 465.7 666.7 463.3 700 467.3C733.3 471.3 766.7 481.7 800 484.2C833.3 486.7 866.7 481.3 883.3 478.7L900 476L900 601L883.3 601C866.7 601 833.3 601 800 601C766.7 601 733.3 601 700 601C666.7 601 633.3 601 600 601C566.7 601 533.3 601 500 601C466.7 601 433.3 601 400 601C366.7 601 333.3 601 300 601C266.7 601 233.3 601 200 601C166.7 601 133.3 601 100 601C66.7 601 33.3 601 16.7 601L0 601Z" fill="#50713d"></path><path d="M0 528L16.7 525.2C33.3 522.3 66.7 516.7 100 509.2C133.3 501.7 166.7 492.3 200 492.8C233.3 493.3 266.7 503.7 300 507.7C333.3 511.7 366.7 509.3 400 501.8C433.3 494.3 466.7 481.7 500 483.3C533.3 485 566.7 501 600 504.5C633.3 508 666.7 499 700 499.2C733.3 499.3 766.7 508.7 800 513.2C833.3 517.7 866.7 517.3 883.3 517.2L900 517L900 601L883.3 601C866.7 601 833.3 601 800 601C766.7 601 733.3 601 700 601C666.7 601 633.3 601 600 601C566.7 601 533.3 601 500 601C466.7 601 433.3 601 400 601C366.7 601 333.3 601 300 601C266.7 601 233.3 601 200 601C166.7 601 133.3 601 100 601C66.7 601 33.3 601 16.7 601L0 601Z" fill="#384f2a"></path><path d="M0 517L16.7 522.3C33.3 527.7 66.7 538.3 100 539.8C133.3 541.3 166.7 533.7 200 529.3C233.3 525 266.7 524 300 521.3C333.3 518.7 366.7 514.3 400 512.7C433.3 511 466.7 512 500 518.7C533.3 525.3 566.7 537.7 600 540.3C633.3 543 666.7 536 700 533C733.3 530 766.7 531 800 533.7C833.3 536.3 866.7 540.7 883.3 542.8L900 545L900 601L883.3 601C866.7 601 833.3 601 800 601C766.7 601 733.3 601 700 601C666.7 601 633.3 601 600 601C566.7 601 533.3 601 500 601C466.7 601 433.3 601 400 601C366.7 601 333.3 601 300 601C266.7 601 233.3 601 200 601C166.7 601 133.3 601 100 601C66.7 601 33.3 601 16.7 601L0 601Z" fill="#212f19"></path></svg>