<svg id="visual" viewBox="0 0 900 600" width="900" height="600" xmlns="http://www.w3.org/2000/svg" xmlns:xlink="http://www.w3.org/1999/xlink" version="1.1"><rect x="0" y="0" width="900" height="600" fill="#191919"></rect><path d="M0 243L16.7 245.8C33.3 248.7 66.7 254.3 100 256.2C133.3 258 166.7 256 200 271.7C233.3 287.3 266.7 320.7 300 326.3C333.3 332 366.7 310 400 287.7C433.3 265.3 466.7 242.7 500 245.8C533.3 249 566.7 278 600 275.2C633.3 272.3 666.7 237.7 700 238.2C733.3 238.7 766.7 274.3 800 278.5C833.3 282.7 866.7 255.3 883.3 241.7L900 228L900 601L883.3 601C866.7 601 833.3 601 800 601C766.7 601 733.3 601 700 601C666.7 601 633.3 601 600 601C566.7 601 533.3 601 500 601C466.7 601 433.3 601 400 601C366.7 601 333.3 601 300 601C266.7 601 233.3 601 200 601C166.7 601 133.3 601 100 601C66.7 601 33.3 601 16.7 601L0 601Z" fill="#85bb65"></path><path d="M0 288L16.7 295.2C33.3 302.3 66.7 316.7 100 330.2C133.3 343.7 166.7 356.3 200 357.3C233.3 358.3 266.7 347.7 300 338C333.3 328.3 366.7 319.7 400 313.3C433.3 307 466.7 303 500 314.5C533.3 326 566.7 353 600 357.7C633.3 362.3 666.7 344.7 700 341.8C733.3 339 766.7 351 800 345.7C833.3 340.3 866.7 317.7 883.3 306.3L900 295L900 601L883.3 601C866.7 601 833.3 601 800 601C766.7 601 733.3 601 700 601C666.7 601 633.3 601 600 601C566.7 601 533.3 601 500 601C466.7 601 433.3 601 400 601C366.7 601 333.3 601 300 601C266.7 601 233.3 601 200 601C166.7 601 133.3 601 100 601C66.7 601 33.3 601 16.7 601L0 601Z" fill="#6a9551"></path><path d="M0 402L16.7 399.2C33.3 396.3 66.7 390.7 100 396.7C133.3 402.7 166.7 420.3 200 423.3C233.3 426.3 266.7 414.7 300 410C333.3 405.3 366.7 407.7 400 403.8C433.3 400 466.7 390 500 379.8C533.3 369.7 566.7 359.3 600 365C633.3 370.7 666.7 392.3 700 395.8C733.3 399.3 766.7 384.7 800 380.5C833.3 376.3 866.7 382.7 883.3 385.8L900 389L900 601L883.3 601C866.7 601 833.3 601 800 601C766.7 601 733.3 601 700 601C666.7 601 633.3 601 600 601C566.7 601 533.3 601 500 601C466.7 601 433.3 601 400 601C366.7 601 333.3 601 300 601C266.7 601 233.3 601 200 601C166.7 601 133.3 601 100 601C66.7 601 33.3 601 16.7 601L0 601Z" fill="#50713d"></path><path d="M0 458L16.7 466.3C33.3 474.7 66.7 491.3 100 486C133.3 480.7 166.7 453.3 200 446.3C233.3 439.3 266.7 452.7 300 454.2C333.3 455.7 366.7 445.3 400 446.8C433.3 448.3 466.7 461.7 500 470C533.3 478.3 566.7 481.7 600 485.7C633.3 489.7 666.7 494.3 700 488.5C733.3 482.7 766.7 466.3 800 457.5C833.3 448.7 866.7 447.3 883.3 446.7L900 446L900 601L883.3 601C866.7 601 833.3 601 800 601C766.7 601 733.3 601 700 601C666.7 601 633.3 601 600 601C566.7 601 533.3 601 500 601C466.7 601 433.3 601 400 601C366.7 601 333.3 601 300 601C266.7 601 233.3 601 200 601C166.7 601 133.3 601 100 601C66.7 601 33.3 601 16.7 601L0 601Z" fill="#384f2a"></path><path d="M0 552L16.7 547.2C33.3 542.3 66.7 532.7 100 527.5C133.3 522.3 166.7 521.7 200 519.7C233.3 517.7 266.7 514.3 300 510.8C333.3 507.3 366.7 503.7 400 499.2C433.3 494.7 466.7 489.3 500 496.8C533.3 504.3 566.7 524.7 600 527.7C633.3 530.7 666.7 516.3 700 513.7C733.3 511 766.7 520 800 528.8C833.3 537.7 866.7 546.3 883.3 550.7L900 555L900 601L883.3 601C866.7 601 833.3 601 800 601C766.7 601 733.3 601 700 601C666.7 601 633.3 601 600 601C566.7 601 533.3 601 500 601C466.7 601 433.3 601 400 601C366.7 601 333.3 601 300 601C266.7 601 233.3 601 200 601C166.7 601 133.3 601 100 601C66.7 601 33.3 601 16.7 601L0 601Z" fill="#212f19"></path></svg>