<svg id="visual" viewBox="0 0 900 600" width="900" height="600" xmlns="http://www.w3.org/2000/svg" xmlns:xlink="http://www.w3.org/1999/xlink" version="1.1"><rect width="900" height="600" fill="#001829"></rect><g><g transform="translate(273 517)"><path d="M0 -147L114.9 -91.7L143.3 32.7L63.8 132.4L-63.8 132.4L-143.3 32.7L-114.9 -91.7Z" fill="#85bb65"></path></g><g transform="translate(750 122)"><path d="M0 -84L65.7 -52.4L81.9 18.7L36.4 75.7L-36.4 75.7L-81.9 18.7L-65.7 -52.4Z" fill="#85bb65"></path></g><g transform="translate(89 22)"><path d="M0 -88L68.8 -54.9L85.8 19.6L38.2 79.3L-38.2 79.3L-85.8 19.6L-68.8 -54.9Z" fill="#85bb65"></path></g><g transform="translate(420 166)"><path d="M0 -88L68.8 -54.9L85.8 19.6L38.2 79.3L-38.2 79.3L-85.8 19.6L-68.8 -54.9Z" fill="#85bb65"></path></g><g transform="translate(634 408)"><path d="M0 -91L71.1 -56.7L88.7 20.2L39.5 82L-39.5 82L-88.7 20.2L-71.1 -56.7Z" fill="#85bb65"></path></g><g transform="translate(873 591)"><path d="M0 -118L92.3 -73.6L115 26.3L51.2 106.3L-51.2 106.3L-115 26.3L-92.3 -73.6Z" fill="#85bb65"></path></g><g transform="translate(2 313)"><path d="M0 -116L90.7 -72.3L113.1 25.8L50.3 104.5L-50.3 104.5L-113.1 25.8L-90.7 -72.3Z" fill="#85bb65"></path></g></g></svg>