<svg xmlns="http://www.w3.org/2000/svg" xmlns:xlink="http://www.w3.org/1999/xlink" width="500" zoomAndPan="magnify" viewBox="0 0 375 374.999991" height="500" preserveAspectRatio="xMidYMid meet" version="1.0"><defs><clipPath id="dd3ec7b154"><path d="M 65 40.078125 L 216 40.078125 L 216 248 L 65 248 Z M 65 40.078125 " clip-rule="nonzero"/></clipPath></defs><path fill="#3d9705" d="M 292.382812 279.847656 C 262.617188 328.363281 226.144531 334.820312 191.550781 320.257812 C 191.75 313.257812 192.292969 305.707031 193.324219 297.757812 C 200.082031 245.636719 266.519531 159.140625 267.3125 158.109375 C 266.507812 158.777344 199.226562 214.820312 176.488281 284.839844 C 173.605469 293.722656 171.675781 301.671875 170.515625 308.789062 C 134.480469 284.585938 117.429688 246.792969 150.546875 192.820312 C 185.0625 136.566406 300.160156 108.078125 300.160156 108.078125 C 300.160156 108.078125 326.898438 223.597656 292.382812 279.847656 Z M 292.382812 279.847656 " fill-opacity="1" fill-rule="nonzero"/><g clip-path="url(#dd3ec7b154)"><path fill="#3d9705" d="M 215.773438 127.339844 C 190.410156 139.347656 164.429688 155.304688 148.164062 175.183594 C 123.886719 137.210938 103.261719 96.535156 102.773438 95.351562 C 102.984375 96.597656 113.570312 141.84375 139.25 188.203125 C 125.972656 211 121.753906 230.847656 124.15625 247.945312 C 107.152344 242.054688 91.199219 227.96875 77.667969 202.789062 C 48.121094 147.808594 79.617188 40.1875 79.617188 40.1875 C 79.617188 40.1875 185.511719 72.933594 215.773438 127.339844 Z M 215.773438 127.339844 " fill-opacity="1" fill-rule="nonzero"/></g></svg>