<svg xmlns="http://www.w3.org/2000/svg" xmlns:xlink="http://www.w3.org/1999/xlink" width="500" zoomAndPan="magnify" viewBox="0 0 375 374.999991" height="500" preserveAspectRatio="xMidYMid meet" version="1.0"><defs><clipPath id="93e7d1bc20"><path d="M 5.1875 5.1875 L 369.6875 5.1875 L 369.6875 369.6875 L 5.1875 369.6875 Z M 5.1875 5.1875 " clip-rule="nonzero"/></clipPath></defs><g clip-path="url(#93e7d1bc20)"><path fill="#3d9705" d="M 187.496094 5.1875 C 237.839844 5.1875 283.414062 25.59375 316.40625 58.585938 C 349.394531 91.578125 369.804688 137.152344 369.804688 187.496094 C 369.804688 237.839844 349.394531 283.414062 316.40625 316.40625 C 283.414062 349.394531 237.839844 369.804688 187.496094 369.804688 C 137.152344 369.804688 91.578125 349.394531 58.585938 316.40625 C 25.59375 283.414062 5.1875 237.839844 5.1875 187.496094 C 5.1875 137.152344 25.59375 91.578125 58.585938 58.585938 C 91.578125 25.59375 137.152344 5.1875 187.496094 5.1875 Z M 187.496094 165.121094 C 193.675781 165.121094 199.265625 167.628906 203.3125 171.675781 C 207.359375 175.722656 209.867188 181.316406 209.867188 187.496094 C 209.867188 193.675781 207.359375 199.265625 203.3125 203.3125 C 199.265625 207.359375 193.675781 209.867188 187.496094 209.867188 C 181.316406 209.867188 175.722656 207.359375 171.675781 203.3125 C 167.628906 199.265625 165.121094 193.675781 165.121094 187.496094 C 165.121094 181.316406 167.628906 175.722656 171.675781 171.675781 C 175.722656 167.628906 181.316406 165.121094 187.496094 165.121094 Z M 199.769531 175.222656 C 196.628906 172.082031 192.289062 170.140625 187.496094 170.140625 C 182.699219 170.140625 178.363281 172.082031 175.222656 175.222656 C 172.082031 178.363281 170.140625 182.699219 170.140625 187.496094 C 170.140625 192.289062 172.082031 196.628906 175.222656 199.769531 C 178.363281 202.90625 182.699219 204.847656 187.496094 204.847656 C 192.289062 204.847656 196.628906 202.90625 199.769531 199.769531 C 202.90625 196.628906 204.847656 192.289062 204.847656 187.496094 C 204.847656 182.699219 202.90625 178.363281 199.769531 175.222656 Z M 187.496094 147.351562 C 198.578125 147.351562 208.613281 151.847656 215.878906 159.113281 C 223.144531 166.375 227.636719 176.410156 227.636719 187.496094 C 227.636719 198.578125 223.144531 208.613281 215.878906 215.878906 C 208.613281 223.144531 198.578125 227.636719 187.496094 227.636719 C 176.410156 227.636719 166.375 223.144531 159.113281 215.878906 C 151.847656 208.613281 147.351562 198.578125 147.351562 187.496094 C 147.351562 176.410156 151.847656 166.375 159.113281 159.113281 C 166.375 151.847656 176.410156 147.351562 187.496094 147.351562 Z M 212.332031 162.660156 C 205.976562 156.304688 197.195312 152.371094 187.496094 152.371094 C 177.796875 152.371094 169.015625 156.304688 162.660156 162.660156 C 156.304688 169.015625 152.371094 177.796875 152.371094 187.496094 C 152.371094 197.195312 156.304688 205.976562 162.660156 212.332031 C 169.015625 218.6875 177.796875 222.617188 187.496094 222.617188 C 197.195312 222.617188 205.976562 218.6875 212.332031 212.332031 C 218.6875 205.976562 222.617188 197.195312 222.617188 187.496094 C 222.617188 177.796875 218.6875 169.015625 212.332031 162.660156 Z M 187.496094 129.582031 C 203.484375 129.582031 217.964844 136.0625 228.445312 146.542969 C 238.929688 157.027344 245.40625 171.507812 245.40625 187.496094 C 245.40625 203.484375 238.929688 217.964844 228.445312 228.445312 C 217.964844 238.929688 203.484375 245.40625 187.496094 245.40625 C 171.507812 245.40625 157.027344 238.929688 146.542969 228.445312 C 136.0625 217.964844 129.582031 203.484375 129.582031 187.496094 C 129.582031 171.507812 136.0625 157.027344 146.542969 146.542969 C 157.027344 136.0625 171.507812 129.582031 187.496094 129.582031 Z M 224.898438 150.089844 C 215.324219 140.519531 202.101562 134.597656 187.496094 134.597656 C 172.890625 134.597656 159.664062 140.519531 150.089844 150.089844 C 140.519531 159.664062 134.597656 172.890625 134.597656 187.496094 C 134.597656 202.101562 140.519531 215.324219 150.089844 224.898438 C 159.664062 234.46875 172.890625 240.390625 187.496094 240.390625 C 202.101562 240.390625 215.324219 234.46875 224.898438 224.898438 C 234.46875 215.324219 240.390625 202.101562 240.390625 187.496094 C 240.390625 172.890625 234.46875 159.664062 224.898438 150.089844 Z M 187.496094 111.8125 C 208.394531 111.8125 227.316406 120.285156 241.007812 133.980469 C 254.707031 147.671875 263.175781 166.597656 263.175781 187.496094 C 263.175781 208.394531 254.707031 227.316406 241.007812 241.007812 C 227.316406 254.707031 208.394531 263.175781 187.496094 263.175781 C 166.597656 263.175781 147.671875 254.707031 133.980469 241.007812 C 120.285156 227.316406 111.8125 208.394531 111.8125 187.496094 C 111.8125 166.597656 120.285156 147.671875 133.980469 133.980469 C 147.671875 120.285156 166.597656 111.8125 187.496094 111.8125 Z M 237.464844 137.527344 C 224.675781 124.738281 207.011719 116.828125 187.496094 116.828125 C 167.980469 116.828125 150.316406 124.738281 137.527344 137.527344 C 124.738281 150.316406 116.828125 167.980469 116.828125 187.496094 C 116.828125 207.011719 124.738281 224.675781 137.527344 237.464844 C 150.316406 250.253906 167.980469 258.160156 187.496094 258.160156 C 207.011719 258.160156 224.675781 250.253906 237.464844 237.464844 C 250.253906 224.675781 258.160156 207.011719 258.160156 187.496094 C 258.160156 167.980469 250.253906 150.316406 237.464844 137.527344 Z M 187.496094 94.039062 C 213.300781 94.039062 236.667969 104.5 253.578125 121.414062 C 270.488281 138.324219 280.953125 161.691406 280.953125 187.496094 C 280.953125 213.300781 270.488281 236.667969 253.578125 253.578125 C 236.667969 270.488281 213.300781 280.953125 187.496094 280.953125 C 161.691406 280.953125 138.324219 270.488281 121.414062 253.578125 C 104.5 236.667969 94.039062 213.300781 94.039062 187.496094 C 94.039062 161.691406 104.5 138.324219 121.414062 121.414062 C 138.324219 104.5 161.691406 94.039062 187.496094 94.039062 Z M 250.03125 124.957031 C 234.027344 108.960938 211.914062 99.058594 187.496094 99.058594 C 163.074219 99.058594 140.960938 108.960938 124.957031 124.957031 C 108.960938 140.960938 99.058594 163.074219 99.058594 187.496094 C 99.058594 211.914062 108.960938 234.027344 124.957031 250.03125 C 140.960938 266.03125 163.074219 275.929688 187.496094 275.929688 C 211.914062 275.929688 234.027344 266.03125 250.03125 250.03125 C 266.03125 234.027344 275.929688 211.914062 275.929688 187.496094 C 275.929688 163.074219 266.03125 140.960938 250.03125 124.957031 Z M 187.496094 76.269531 C 218.210938 76.269531 246.015625 88.71875 266.140625 108.847656 C 286.273438 128.976562 298.722656 156.78125 298.722656 187.496094 C 298.722656 218.210938 286.273438 246.015625 266.140625 266.140625 C 246.015625 286.273438 218.210938 298.722656 187.496094 298.722656 C 156.78125 298.722656 128.976562 286.273438 108.847656 266.140625 C 88.71875 246.015625 76.269531 218.210938 76.269531 187.496094 C 76.269531 156.78125 88.71875 128.976562 108.847656 108.847656 C 128.976562 88.71875 156.78125 76.269531 187.496094 76.269531 Z M 262.59375 112.394531 C 243.375 93.175781 216.824219 81.289062 187.496094 81.289062 C 158.164062 81.289062 131.613281 93.175781 112.394531 112.394531 C 93.175781 131.613281 81.289062 158.164062 81.289062 187.496094 C 81.289062 216.824219 93.175781 243.375 112.394531 262.59375 C 131.613281 281.8125 158.164062 293.699219 187.496094 293.699219 C 216.824219 293.699219 243.375 281.8125 262.59375 262.59375 C 281.8125 243.375 293.699219 216.824219 293.699219 187.496094 C 293.699219 158.164062 281.8125 131.613281 262.59375 112.394531 Z M 187.496094 58.5 C 223.113281 58.5 255.363281 72.9375 278.710938 96.28125 C 302.050781 119.628906 316.492188 151.875 316.492188 187.496094 C 316.492188 223.113281 302.050781 255.363281 278.710938 278.710938 C 255.363281 302.050781 223.113281 316.492188 187.496094 316.492188 C 151.875 316.492188 119.628906 302.050781 96.28125 278.710938 C 72.9375 255.363281 58.5 223.113281 58.5 187.496094 C 58.5 151.875 72.9375 119.628906 96.28125 96.28125 C 119.628906 72.9375 151.875 58.5 187.496094 58.5 Z M 275.164062 99.828125 C 252.726562 77.394531 221.730469 63.515625 187.496094 63.515625 C 153.261719 63.515625 122.265625 77.394531 99.828125 99.828125 C 77.394531 122.265625 63.515625 153.261719 63.515625 187.496094 C 63.515625 221.730469 77.394531 252.726562 99.828125 275.164062 C 122.265625 297.597656 153.261719 311.476562 187.496094 311.476562 C 221.730469 311.476562 252.726562 297.597656 275.164062 275.164062 C 297.597656 252.726562 311.476562 221.730469 311.476562 187.496094 C 311.476562 153.261719 297.597656 122.265625 275.164062 99.828125 Z M 187.496094 40.730469 C 228.023438 40.730469 264.71875 57.15625 291.273438 83.71875 C 317.835938 110.273438 334.261719 146.964844 334.261719 187.496094 C 334.261719 228.023438 317.835938 264.71875 291.273438 291.273438 C 264.71875 317.835938 228.023438 334.261719 187.496094 334.261719 C 146.964844 334.261719 110.273438 317.835938 83.71875 291.273438 C 57.15625 264.71875 40.730469 228.023438 40.730469 187.496094 C 40.730469 146.964844 57.15625 110.273438 83.71875 83.71875 C 110.273438 57.15625 146.964844 40.730469 187.496094 40.730469 Z M 287.726562 87.261719 C 262.078125 61.613281 226.640625 45.746094 187.496094 45.746094 C 148.351562 45.746094 112.910156 61.613281 87.261719 87.261719 C 61.613281 112.910156 45.746094 148.351562 45.746094 187.496094 C 45.746094 226.640625 61.613281 262.078125 87.261719 287.726562 C 112.910156 313.375 148.351562 329.246094 187.496094 329.246094 C 226.640625 329.246094 262.078125 313.375 287.726562 287.726562 C 313.375 262.078125 329.246094 226.640625 329.246094 187.496094 C 329.246094 148.351562 313.375 112.910156 287.726562 87.261719 Z M 187.496094 22.957031 C 232.929688 22.957031 274.066406 41.371094 303.84375 71.148438 C 333.617188 100.925781 352.035156 142.0625 352.035156 187.496094 C 352.035156 232.929688 333.617188 274.066406 303.84375 303.84375 C 274.066406 333.617188 232.929688 352.035156 187.496094 352.035156 C 142.0625 352.035156 100.925781 333.617188 71.148438 303.84375 C 41.371094 274.066406 22.957031 232.929688 22.957031 187.496094 C 22.957031 142.0625 41.371094 100.925781 71.148438 71.148438 C 100.925781 41.371094 142.0625 22.957031 187.496094 22.957031 Z M 300.289062 74.699219 C 271.425781 45.832031 231.546875 27.976562 187.496094 27.976562 C 143.445312 27.976562 103.5625 45.832031 74.699219 74.699219 C 45.832031 103.5625 27.976562 143.445312 27.976562 187.496094 C 27.976562 231.546875 45.832031 271.425781 74.699219 300.289062 C 103.5625 329.160156 143.445312 347.015625 187.496094 347.015625 C 231.546875 347.015625 271.425781 329.160156 300.289062 300.289062 C 329.160156 271.425781 347.015625 231.546875 347.015625 187.496094 C 347.015625 143.445312 329.160156 103.5625 300.289062 74.699219 Z M 312.859375 62.132812 C 280.777344 30.046875 236.457031 10.207031 187.496094 10.207031 C 138.535156 10.207031 94.214844 30.046875 62.132812 62.132812 C 30.046875 94.214844 10.207031 138.535156 10.207031 187.496094 C 10.207031 236.457031 30.046875 280.777344 62.132812 312.859375 C 94.214844 344.941406 138.535156 364.785156 187.496094 364.785156 C 236.457031 364.785156 280.777344 344.941406 312.859375 312.859375 C 344.941406 280.777344 364.785156 236.457031 364.785156 187.496094 C 364.785156 138.535156 344.941406 94.214844 312.859375 62.132812 Z M 312.859375 62.132812 " fill-opacity="1" fill-rule="nonzero"/></g></svg>