<svg xmlns="http://www.w3.org/2000/svg" xmlns:xlink="http://www.w3.org/1999/xlink" width="500" zoomAndPan="magnify" viewBox="0 0 375 374.999991" height="500" preserveAspectRatio="xMidYMid meet" version="1.0"><defs><clipPath id="cd2dcc4815"><path d="M 2 134 L 373.15625 134 L 373.15625 295 L 2 295 Z M 2 134 " clip-rule="nonzero"/></clipPath></defs><path fill="#3d9705" d="M 94.152344 29.960938 C 93.476562 30.035156 92.875 29.535156 92.800781 28.855469 C 92.722656 28.179688 93.199219 27.578125 93.875 27.503906 C 101.539062 26.628906 109.453125 24.347656 117.519531 20.96875 C 125.609375 17.5625 133.898438 13.027344 142.289062 7.644531 C 142.867188 7.269531 143.617188 7.441406 143.992188 8.019531 C 144.34375 8.59375 144.191406 9.347656 143.617188 9.722656 C 135.125 15.15625 126.710938 19.765625 118.472656 23.246094 C 110.179688 26.726562 102.066406 29.058594 94.152344 29.960938 Z M 94.152344 29.960938 " fill-opacity="1" fill-rule="nonzero"/><path fill="#3d9705" d="M 71.109375 45.585938 C 70.484375 45.386719 70.109375 44.6875 70.308594 44.035156 C 70.507812 43.382812 71.210938 43.03125 71.859375 43.234375 C 86.789062 47.890625 103.042969 45.085938 120 37.523438 C 137.128906 29.882812 154.964844 17.386719 172.945312 2.785156 C 173.472656 2.359375 174.25 2.433594 174.675781 2.960938 C 175.101562 3.484375 175.023438 4.261719 174.5 4.6875 C 156.367188 19.414062 138.359375 32.039062 121 39.777344 C 103.492188 47.589844 86.6875 50.445312 71.109375 45.585938 Z M 71.109375 45.585938 " fill-opacity="1" fill-rule="nonzero"/><path fill="#3d9705" d="M 57.960938 56.910156 C 57.382812 56.53125 57.234375 55.78125 57.585938 55.207031 C 57.960938 54.65625 58.738281 54.480469 59.289062 54.855469 C 78.222656 67.175781 99.8125 64.699219 122.605469 53.929688 C 145.671875 43.03125 169.964844 23.671875 194.058594 2.457031 C 194.5625 2.007812 195.335938 2.058594 195.789062 2.558594 C 196.238281 3.085938 196.1875 3.863281 195.6875 4.3125 C 171.441406 25.652344 146.972656 45.136719 123.65625 56.15625 C 100.113281 67.277344 77.746094 69.78125 57.960938 56.910156 Z M 57.960938 56.910156 " fill-opacity="1" fill-rule="nonzero"/><path fill="#3d9705" d="M 48.21875 66.851562 C 47.714844 66.375 47.714844 65.597656 48.191406 65.125 C 48.667969 64.621094 49.445312 64.621094 49.921875 65.097656 C 71.734375 86.210938 97.707031 84.109375 125.359375 70.28125 C 153.335938 56.28125 183.066406 30.285156 211.96875 4.035156 C 212.46875 3.585938 213.246094 3.609375 213.71875 4.136719 C 214.171875 4.636719 214.121094 5.414062 213.621094 5.863281 C 184.59375 32.214844 154.738281 58.335938 126.460938 72.460938 C 97.882812 86.789062 70.960938 88.890625 48.21875 66.851562 Z M 48.21875 66.851562 " fill-opacity="1" fill-rule="nonzero"/><path fill="#3d9705" d="M 40.578125 75.867188 C 40.152344 75.34375 40.253906 74.566406 40.777344 74.140625 C 41.328125 73.738281 42.105469 73.8125 42.507812 74.367188 C 75.71875 116.816406 120.25 96.980469 166.058594 61.167969 C 184.441406 46.789062 203.101562 29.785156 221.308594 13.179688 L 228.121094 6.992188 C 228.621094 6.515625 229.398438 6.566406 229.851562 7.066406 C 230.300781 7.566406 230.277344 8.34375 229.773438 8.796875 L 222.960938 15.007812 C 204.753906 31.613281 186.09375 48.617188 167.5625 63.09375 C 120.699219 99.738281 75.015625 119.925781 40.578125 75.867188 Z M 40.578125 75.867188 " fill-opacity="1" fill-rule="nonzero"/><path fill="#3d9705" d="M 34.242188 84.410156 C 33.867188 83.832031 34.042969 83.082031 34.617188 82.707031 C 35.195312 82.355469 35.945312 82.53125 36.320312 83.105469 C 64.222656 127.488281 101.289062 121.601562 140.6875 96.804688 C 167.136719 80.175781 194.6875 55.082031 221.285156 30.8125 C 228.671875 24.097656 235.988281 17.4375 243.097656 11.101562 C 243.625 10.648438 244.402344 10.699219 244.851562 11.199219 C 245.304688 11.699219 245.253906 12.476562 244.753906 12.929688 C 237.539062 19.339844 230.277344 25.953125 222.960938 32.640625 C 196.289062 56.957031 168.636719 82.15625 142.015625 98.886719 C 101.390625 124.433594 63.171875 130.417969 34.242188 84.410156 Z M 34.242188 84.410156 " fill-opacity="1" fill-rule="nonzero"/><path fill="#3d9705" d="M 28.808594 92.648438 C 28.507812 92.046875 28.730469 91.296875 29.332031 90.996094 C 29.933594 90.671875 30.683594 90.921875 30.984375 91.523438 C 56.582031 140.335938 90.871094 141.261719 127.964844 121.828125 C 158.167969 105.972656 190.351562 76.644531 221.234375 48.492188 C 233.53125 37.273438 245.628906 26.253906 257.351562 16.308594 C 257.875 15.859375 258.652344 15.933594 259.105469 16.433594 C 259.53125 16.960938 259.480469 17.738281 258.953125 18.1875 C 247.28125 28.082031 235.183594 39.101562 222.886719 50.320312 C 191.90625 78.574219 159.621094 108.003906 129.089844 124.007812 C 90.746094 144.117188 55.28125 143.140625 28.808594 92.648438 Z M 28.808594 92.648438 " fill-opacity="1" fill-rule="nonzero"/><path fill="#3d9705" d="M 24.171875 100.636719 C 23.898438 100.039062 24.171875 99.3125 24.800781 99.035156 C 25.402344 98.761719 26.128906 99.035156 26.402344 99.636719 C 50.722656 153.886719 83.859375 159.519531 120.125 143.265625 C 152.582031 128.714844 187.671875 96.730469 221.234375 66.125 C 238.441406 50.472656 255.246094 35.144531 271.175781 22.671875 C 271.703125 22.246094 272.476562 22.34375 272.878906 22.871094 C 273.304688 23.398438 273.203125 24.171875 272.679688 24.597656 C 256.875 36.996094 240.09375 52.300781 222.886719 67.953125 C 189.175781 98.683594 153.960938 130.792969 121.125 145.519531 C 83.558594 162.375 49.246094 156.589844 24.171875 100.636719 Z M 24.171875 100.636719 " fill-opacity="1" fill-rule="nonzero"/><path fill="#3d9705" d="M 20.140625 108.476562 C 19.890625 107.851562 20.191406 107.125 20.84375 106.875 C 21.46875 106.625 22.195312 106.949219 22.421875 107.578125 C 45.9375 167.761719 78.625 177.179688 114.789062 163.078125 C 148.726562 149.828125 185.84375 116.015625 221.285156 83.734375 C 243.425781 63.546875 264.914062 43.984375 284.675781 30.285156 C 285.226562 29.910156 286.003906 30.058594 286.378906 30.609375 C 286.78125 31.160156 286.628906 31.9375 286.078125 32.3125 C 266.46875 45.886719 245.027344 65.425781 222.9375 85.5625 C 187.324219 117.996094 150.054688 151.957031 115.667969 165.382812 C 78.171875 180.007812 44.308594 170.417969 20.140625 108.476562 Z M 20.140625 108.476562 " fill-opacity="1" fill-rule="nonzero"/><path fill="#3d9705" d="M 16.558594 116.34375 C 16.335938 115.691406 16.683594 114.988281 17.3125 114.765625 C 17.960938 114.539062 18.664062 114.890625 18.890625 115.539062 C 41.753906 181.960938 74.414062 194.6875 110.808594 182.164062 C 145.796875 170.117188 184.441406 134.902344 221.257812 101.363281 C 248.535156 76.519531 274.832031 52.550781 298.101562 39.425781 C 298.703125 39.101562 299.453125 39.328125 299.777344 39.902344 C 300.105469 40.503906 299.902344 41.253906 299.300781 41.582031 C 276.308594 54.527344 250.113281 78.421875 222.914062 103.191406 C 185.917969 136.90625 147.074219 172.269531 111.582031 184.492188 C 73.839844 197.492188 40.050781 184.542969 16.558594 116.34375 Z M 16.558594 116.34375 " fill-opacity="1" fill-rule="nonzero"/><path fill="#3d9705" d="M 13.355469 124.382812 C 13.152344 123.730469 13.527344 123.054688 14.179688 122.855469 C 14.832031 122.652344 15.507812 123.003906 15.707031 123.65625 C 38.074219 196.488281 70.835938 212.242188 107.652344 200.921875 C 143.46875 189.925781 183.289062 153.636719 221.210938 119.074219 C 253.996094 89.191406 285.328125 60.617188 311.699219 50.570312 C 312.328125 50.320312 313.050781 50.648438 313.304688 51.273438 C 313.527344 51.925781 313.203125 52.625 312.578125 52.875 C 286.652344 62.746094 255.472656 91.171875 222.863281 120.902344 C 184.769531 155.613281 144.71875 192.132812 108.378906 203.277344 C 70.15625 215.023438 36.269531 198.992188 13.355469 124.382812 Z M 13.355469 124.382812 " fill-opacity="1" fill-rule="nonzero"/><path fill="#3d9705" d="M 10.625 132.320312 C 10.449219 131.671875 10.824219 130.996094 11.5 130.820312 C 12.152344 130.644531 12.828125 131.019531 13.003906 131.671875 C 34.941406 210.964844 67.980469 229.449219 105.371094 219.082031 C 141.765625 209.011719 182.511719 171.917969 221.234375 136.65625 C 260.054688 101.289062 296.898438 67.726562 325.875 64.648438 C 326.550781 64.574219 327.152344 65.074219 327.226562 65.75 C 327.304688 66.425781 326.800781 67.027344 326.125 67.101562 C 297.949219 70.109375 261.40625 103.367188 222.886719 138.457031 C 183.964844 173.921875 142.992188 211.242188 106.023438 221.460938 C 67.226562 232.203125 33.066406 213.394531 10.625 132.320312 Z M 10.625 132.320312 " fill-opacity="1" fill-rule="nonzero"/><path fill="#3d9705" d="M 8.167969 140.835938 C 7.992188 140.160156 8.394531 139.507812 9.046875 139.335938 C 9.722656 139.160156 10.375 139.585938 10.546875 140.234375 C 32.0625 225.816406 65.398438 246.882812 103.394531 237.3125 C 140.285156 228.046875 181.789062 190.226562 221.210938 154.285156 C 267.195312 112.386719 310.371094 73.039062 341.105469 83.808594 C 341.753906 84.03125 342.082031 84.734375 341.878906 85.386719 C 341.65625 86.011719 340.953125 86.363281 340.300781 86.136719 C 310.949219 75.84375 268.296875 114.714844 222.863281 156.113281 C 183.214844 192.257812 141.488281 230.277344 103.996094 239.71875 C 64.597656 249.613281 30.132812 228.222656 8.167969 140.835938 Z M 8.167969 140.835938 " fill-opacity="1" fill-rule="nonzero"/><path fill="#3d9705" d="M 6.089844 149.578125 C 5.941406 148.902344 6.339844 148.25 7.015625 148.101562 C 7.667969 147.949219 8.320312 148.351562 8.46875 149.027344 C 29.632812 240.71875 63.296875 264.085938 101.914062 255.195312 C 139.160156 246.605469 181.261719 208.261719 221.210938 171.867188 C 240.042969 154.710938 258.402344 137.980469 275.609375 124.957031 C 309.09375 99.613281 338.222656 88.265625 358.136719 114.5625 C 358.5625 115.113281 358.4375 115.867188 357.910156 116.292969 C 357.359375 116.691406 356.582031 116.59375 356.179688 116.042969 C 337.445312 91.296875 309.421875 102.441406 277.113281 126.910156 C 259.980469 139.886719 241.671875 156.566406 222.886719 173.671875 C 182.6875 210.289062 140.363281 248.859375 102.46875 257.601562 C 62.445312 266.816406 27.65625 243.074219 6.089844 149.578125 Z M 6.089844 149.578125 " fill-opacity="1" fill-rule="nonzero"/><path fill="#3d9705" d="M 4.261719 159.421875 C 4.136719 158.769531 4.5625 158.117188 5.214844 157.96875 C 5.890625 157.84375 6.542969 158.242188 6.667969 158.921875 C 27.453125 256.199219 61.441406 281.671875 100.636719 273.28125 C 138.183594 265.265625 180.785156 226.445312 221.183594 189.625 C 255.445312 158.394531 288.132812 128.613281 315.230469 119.898438 C 339.175781 112.183594 358.636719 120.675781 370.785156 158.417969 C 371.007812 159.070312 370.632812 159.773438 370.007812 159.972656 C 369.355469 160.199219 368.65625 159.820312 368.453125 159.195312 C 356.859375 123.15625 338.5 114.988281 315.984375 122.226562 C 289.410156 130.769531 256.898438 160.398438 222.835938 191.429688 C 182.1875 228.496094 139.359375 267.542969 101.140625 275.710938 C 60.539062 284.375 25.449219 258.527344 4.261719 159.421875 Z M 4.261719 159.421875 " fill-opacity="1" fill-rule="nonzero"/><g clip-path="url(#cd2dcc4815)"><path fill="#3d9705" d="M 2.933594 170.214844 C 2.808594 169.566406 3.234375 168.914062 3.886719 168.761719 C 4.5625 168.636719 5.214844 169.0625 5.339844 169.738281 C 25.851562 271.726562 60.113281 298.875 99.785156 290.910156 C 137.554688 283.324219 180.484375 244.203125 221.210938 207.109375 C 256.648438 174.824219 290.410156 144.042969 318.0625 136.578125 C 342.207031 130.042969 361.542969 140.960938 372.988281 183.339844 C 373.164062 183.992188 372.785156 184.667969 372.109375 184.84375 C 371.460938 185.019531 370.785156 184.640625 370.609375 183.964844 C 359.613281 143.367188 341.378906 132.824219 318.6875 138.957031 C 291.636719 146.273438 258.078125 176.851562 222.863281 208.9375 C 181.914062 246.253906 138.707031 285.601562 100.261719 293.316406 C 59.164062 301.582031 23.796875 274.03125 2.933594 170.214844 Z M 2.933594 170.214844 " fill-opacity="1" fill-rule="nonzero"/></g><path fill="#3d9705" d="M 2.160156 183.816406 C 2.007812 183.140625 2.457031 182.488281 3.136719 182.363281 C 3.785156 182.238281 4.4375 182.6875 4.5625 183.339844 C 24.875 288.183594 59.3125 316.382812 99.3125 308.621094 C 137.179688 301.28125 180.308594 262.007812 221.210938 224.765625 C 256.449219 192.65625 290.035156 162.074219 317.585938 154.386719 C 341.679688 147.675781 361.015625 158.167969 372.613281 199.695312 C 372.785156 200.347656 372.410156 201.023438 371.734375 201.199219 C 371.082031 201.375 370.40625 200.996094 370.230469 200.347656 C 359.136719 160.574219 340.878906 150.453125 318.238281 156.765625 C 291.261719 164.28125 257.875 194.6875 222.863281 226.59375 C 181.738281 264.0625 138.332031 303.585938 99.761719 311.050781 C 58.359375 319.0625 22.820312 290.484375 2.160156 183.816406 Z M 2.160156 183.816406 " fill-opacity="1" fill-rule="nonzero"/><path fill="#3d9705" d="M 2.960938 205.65625 C 2.835938 204.980469 3.261719 204.328125 3.9375 204.203125 C 4.585938 204.078125 5.238281 204.503906 5.390625 205.179688 C 7.917969 217.804688 10.699219 229.324219 13.65625 239.792969 C 16.632812 250.238281 19.789062 259.605469 23.121094 267.945312 C 23.371094 268.570312 23.070312 269.296875 22.445312 269.546875 C 21.820312 269.796875 21.09375 269.496094 20.84375 268.847656 C 17.460938 260.429688 14.28125 250.964844 11.300781 240.445312 C 8.320312 229.976562 5.539062 218.378906 2.960938 205.65625 Z M 61.765625 323.746094 C 61.167969 323.421875 60.941406 322.671875 61.265625 322.070312 C 61.59375 321.492188 62.34375 321.265625 62.945312 321.59375 C 107.703125 345.914062 166.460938 292.363281 221.183594 242.5 C 255.699219 211.066406 288.632812 181.0625 315.832031 172.59375 C 339.800781 165.15625 359.238281 174.148438 371.234375 212.792969 C 371.433594 213.445312 371.082031 214.121094 370.433594 214.320312 C 369.78125 214.523438 369.082031 214.171875 368.878906 213.519531 C 357.433594 176.601562 339.101562 167.960938 316.558594 174.949219 C 289.886719 183.238281 257.148438 213.070312 222.835938 244.328125 C 167.484375 294.769531 108.078125 348.917969 61.765625 323.746094 Z M 61.765625 323.746094 " fill-opacity="1" fill-rule="nonzero"/><path fill="#3d9705" d="M 93.777344 347.265625 C 93.101562 347.339844 92.5 346.863281 92.421875 346.1875 C 92.347656 345.511719 92.847656 344.910156 93.527344 344.835938 C 132.746094 340.628906 178.207031 299.203125 221.183594 260.054688 C 254.445312 229.75 286.253906 200.773438 312.878906 191.15625 C 336.871094 182.488281 356.582031 189.300781 369.230469 224.316406 C 369.457031 224.964844 369.128906 225.667969 368.503906 225.894531 C 367.851562 226.117188 367.152344 225.792969 366.925781 225.167969 C 354.902344 191.832031 336.296875 185.320312 313.703125 193.457031 C 287.554688 202.902344 255.921875 231.730469 222.835938 261.882812 C 179.582031 301.28125 133.800781 342.980469 93.777344 347.265625 Z M 93.777344 347.265625 " fill-opacity="1" fill-rule="nonzero"/><path fill="#3d9705" d="M 117.09375 358.734375 C 116.441406 359.011719 115.742188 358.6875 115.464844 358.058594 C 115.214844 357.433594 115.515625 356.707031 116.167969 356.457031 C 149.703125 342.808594 186.269531 309.496094 221.183594 277.664062 C 252.492188 249.136719 282.496094 221.785156 308.117188 210.640625 C 332.589844 199.996094 353 203.953125 366.601562 235.210938 C 366.875 235.8125 366.574219 236.539062 365.949219 236.8125 C 365.347656 237.089844 364.621094 236.8125 364.347656 236.1875 C 351.472656 206.609375 332.210938 202.851562 309.09375 212.894531 C 283.875 223.890625 254.019531 251.089844 222.835938 279.492188 C 187.773438 311.476562 151.03125 344.9375 117.09375 358.734375 Z M 117.09375 358.734375 " fill-opacity="1" fill-rule="nonzero"/><path fill="#3d9705" d="M 137.78125 365.847656 C 137.207031 366.199219 136.453125 366 136.105469 365.421875 C 135.753906 364.847656 135.953125 364.070312 136.53125 363.746094 C 164.203125 347.214844 193.207031 320.792969 221.160156 295.320312 C 249.136719 269.824219 276.085938 245.304688 299.777344 232.429688 C 325.902344 218.203125 348.042969 218.078125 363.246094 246.03125 C 363.570312 246.632812 363.34375 247.382812 362.742188 247.707031 C 362.140625 248.035156 361.417969 247.808594 361.089844 247.207031 C 346.765625 220.882812 325.777344 221.085938 300.957031 234.582031 C 277.539062 247.308594 250.6875 271.75 222.8125 297.148438 C 194.785156 322.695312 165.683594 349.195312 137.78125 365.847656 Z M 137.78125 365.847656 " fill-opacity="1" fill-rule="nonzero"/><path fill="#3d9705" d="M 157.71875 370.230469 C 157.167969 370.632812 156.390625 370.507812 155.988281 369.957031 C 155.589844 369.40625 155.714844 368.628906 156.265625 368.230469 C 177.804688 352.5 199.796875 332.464844 221.160156 312.976562 C 242.296875 293.71875 262.835938 275.007812 281.84375 261.457031 C 313.203125 239.066406 340.351562 230.726562 359.035156 256.898438 C 359.4375 257.449219 359.289062 258.203125 358.734375 258.601562 C 358.183594 259.003906 357.433594 258.878906 357.03125 258.328125 C 339.476562 233.707031 313.453125 241.898438 283.273438 263.460938 C 264.414062 276.910156 243.902344 295.59375 222.8125 314.804688 C 201.398438 334.316406 179.359375 354.402344 157.71875 370.230469 Z M 157.71875 370.230469 " fill-opacity="1" fill-rule="nonzero"/><path fill="#3d9705" d="M 177.480469 372.386719 C 176.953125 372.8125 176.175781 372.738281 175.75 372.210938 C 175.324219 371.710938 175.402344 370.933594 175.902344 370.484375 C 191.003906 358.058594 206.230469 344.183594 221.132812 330.585938 C 273.90625 282.523438 322.96875 237.816406 353.726562 268.171875 C 354.203125 268.644531 354.203125 269.421875 353.726562 269.898438 C 353.25 270.398438 352.476562 270.398438 352 269.921875 C 322.894531 241.195312 274.65625 285.152344 222.789062 332.414062 C 207.886719 345.988281 192.683594 359.839844 177.480469 372.386719 Z M 177.480469 372.386719 " fill-opacity="1" fill-rule="nonzero"/><path fill="#3d9705" d="M 197.96875 372.4375 C 197.464844 372.886719 196.691406 372.835938 196.238281 372.335938 C 195.789062 371.835938 195.835938 371.058594 196.339844 370.609375 C 204.503906 363.371094 212.867188 355.753906 221.109375 348.242188 C 270.023438 303.660156 315.78125 261.957031 346.765625 280.34375 C 347.367188 280.691406 347.539062 281.445312 347.214844 282.019531 C 346.863281 282.621094 346.113281 282.820312 345.511719 282.472656 C 316.109375 265.015625 271 306.113281 222.761719 350.070312 C 214.648438 357.484375 206.40625 364.972656 197.96875 372.4375 Z M 197.96875 372.4375 " fill-opacity="1" fill-rule="nonzero"/><path fill="#3d9705" d="M 220.332031 369.90625 C 219.832031 370.382812 219.054688 370.332031 218.605469 369.832031 C 218.128906 369.332031 218.179688 368.554688 218.679688 368.101562 L 221.035156 365.949219 C 265.164062 325.726562 306.714844 287.855469 337.171875 294.242188 C 337.847656 294.367188 338.273438 295.019531 338.125 295.695312 C 338 296.347656 337.347656 296.796875 336.671875 296.648438 C 307.441406 290.535156 266.34375 327.980469 222.6875 367.777344 Z M 220.332031 369.90625 " fill-opacity="1" fill-rule="nonzero"/><path fill="#3d9705" d="M 247.53125 362.992188 C 247.03125 363.445312 246.253906 363.394531 245.804688 362.894531 C 245.355469 362.367188 245.402344 361.589844 245.90625 361.164062 C 259.878906 348.816406 273.378906 337.597656 286.152344 328.933594 C 298.976562 320.191406 311.074219 314.054688 322.117188 311.949219 C 322.769531 311.824219 323.421875 312.277344 323.546875 312.925781 C 323.671875 313.605469 323.222656 314.253906 322.570312 314.378906 C 311.875 316.410156 300.105469 322.417969 287.53125 330.960938 C 274.882812 339.550781 261.433594 350.722656 247.53125 362.992188 Z M 247.53125 362.992188 " fill-opacity="1" fill-rule="nonzero"/></svg>