<svg id="visual" viewBox="0 0 900 450" width="900" height="450" xmlns="http://www.w3.org/2000/svg" xmlns:xlink="http://www.w3.org/1999/xlink" version="1.1"><rect x="0" y="0" width="900" height="450" fill="#262e22"></rect><path d="M0 62L15 65.8C30 69.7 60 77.3 90 77.8C120 78.3 150 71.7 180 67.3C210 63 240 61 270 64C300 67 330 75 360 79.5C390 84 420 85 450 81.7C480 78.3 510 70.7 540 67.2C570 63.7 600 64.3 630 65C660 65.7 690 66.3 720 64.2C750 62 780 57 810 58C840 59 870 66 885 69.5L900 73L900 0L885 0C870 0 840 0 810 0C780 0 750 0 720 0C690 0 660 0 630 0C600 0 570 0 540 0C510 0 480 0 450 0C420 0 390 0 360 0C330 0 300 0 270 0C240 0 210 0 180 0C150 0 120 0 90 0C60 0 30 0 15 0L0 0Z" fill="#f5f5dc" stroke-linecap="round" stroke-linejoin="miter"></path></svg>