<svg xmlns="http://www.w3.org/2000/svg" version="1.1" xmlns:xlink="http://www.w3.org/1999/xlink" xmlns:svgjs="http://svgjs.dev/svgjs" width="1440" height="560" preserveAspectRatio="none" viewBox="0 0 1440 560"><g mask="url(&quot;#SvgjsMask1084&quot;)" fill="none"><rect width="1440" height="560" x="0" y="0" fill="rgba(133, 187, 101, 1)"></rect><path d="M -753.2817625745384,201 C -657.28,252.4 -465.28,473.4 -273.28176257453845,458 C -81.28,442.6 14.72,124.4 206.71823742546155,124 C 398.72,123.6 494.72,430.4 686.7182374254616,456 C 878.72,481.6 1016.06,282.6 1166.7182374254617,252 C 1317.37,221.4 1385.34,292.8 1440,303" stroke="rgba(100, 140, 76, 1)" stroke-width="2"></path><path d="M -200.26715475994797,511 C -104.27,430.2 87.73,126 279.73284524005203,107 C 471.73,88 567.73,410 759.732845240052,416 C 951.73,422 1047.73,151.2 1239.732845240052,137 C 1431.73,122.8 1679.68,364.4 1719.732845240052,345 C 1759.79,325.6 1495.95,101 1440,40" stroke="rgba(100, 140, 76, 1)" stroke-width="2"></path><path d="M -89.64602946514094,506 C 6.35,416.6 198.35,93 390.35397053485906,59 C 582.35,25 678.35,304.8 870.3539705348591,336 C 1062.35,367.2 1158.35,205 1350.353970534859,215 C 1542.35,225 1812.42,387 1830.353970534859,386 C 1848.28,385 1518.07,245.2 1440,210" stroke="rgba(100, 140, 76, 1)" stroke-width="2"></path><path d="M -792.8316134015122,73 C -696.83,123 -504.83,320.8 -312.83161340151213,323 C -120.83,325.2 -24.83,66.2 167.16838659848787,84 C 359.17,101.8 455.17,383.2 647.1683865984878,412 C 839.17,440.8 968.6,226.4 1127.1683865984878,228 C 1285.73,229.6 1377.43,381.6 1440,420" stroke="rgba(100, 140, 76, 1)" stroke-width="2"></path><path d="M -819.8836403990051,501 C -723.88,456.4 -531.88,318.4 -339.8836403990051,278 C -147.88,237.6 -51.88,299.2 140.11635960099488,299 C 332.12,298.8 428.12,233.6 620.1163596009949,277 C 812.12,320.4 936.14,525.6 1100.1163596009949,516 C 1264.09,506.4 1372.02,286.4 1440,229" stroke="rgba(100, 140, 76, 1)" stroke-width="2"></path><path d="M -298.95100947312994,90 C -202.95,173.2 -10.95,511.2 181.04899052687006,506 C 373.05,500.8 469.05,108.2 661.04899052687,64 C 853.05,19.8 949.05,268.8 1141.04899052687,285 C 1333.05,301.2 1561.26,119.2 1621.04899052687,145 C 1680.84,170.8 1476.21,360.2 1440,414" stroke="rgba(100, 140, 76, 1)" stroke-width="2"></path><path d="M -373.29760899273725,142 C -277.3,205.4 -85.3,463.4 106.70239100726275,459 C 298.7,454.6 394.7,145.6 586.7023910072628,120 C 778.7,94.4 874.7,342.4 1066.7023910072628,331 C 1258.7,319.6 1472.04,53.8 1546.7023910072628,63 C 1621.36,72.2 1461.34,314.2 1440,377" stroke="rgba(100, 140, 76, 1)" stroke-width="2"></path></g><defs><mask id="SvgjsMask1084"><rect width="1440" height="560" fill="#ffffff"></rect></mask></defs></svg>