<svg id="visual" viewBox="0 0 900 600" width="900" height="600" xmlns="http://www.w3.org/2000/svg" xmlns:xlink="http://www.w3.org/1999/xlink" version="1.1"><rect x="0" y="0" width="900" height="600" fill="#85bb65"></rect><path d="M0 545L6.8 540.5C13.7 536 27.3 527 41 522.5C54.7 518 68.3 518 82 526.5C95.7 535 109.3 552 123 555.5C136.7 559 150.3 549 164 540.8C177.7 532.7 191.3 526.3 204.8 522.5C218.3 518.7 231.7 517.3 245.2 521.2C258.7 525 272.3 534 286 540C299.7 546 313.3 549 327 549.7C340.7 550.3 354.3 548.7 368 551.3C381.7 554 395.3 561 409 565.3C422.7 569.7 436.3 571.3 450 571C463.7 570.7 477.3 568.3 491 564.5C504.7 560.7 518.3 555.3 532 550.5C545.7 545.7 559.3 541.3 573 544.8C586.7 548.3 600.3 559.7 614 557.5C627.7 555.3 641.3 539.7 654.8 529.8C668.3 520 681.7 516 695.2 519C708.7 522 722.3 532 736 535.3C749.7 538.7 763.3 535.3 777 530.3C790.7 525.3 804.3 518.7 818 520.5C831.7 522.3 845.3 532.7 859 535.5C872.7 538.3 886.3 533.7 893.2 531.3L900 529L900 601L893.2 601C886.3 601 872.7 601 859 601C845.3 601 831.7 601 818 601C804.3 601 790.7 601 777 601C763.3 601 749.7 601 736 601C722.3 601 708.7 601 695.2 601C681.7 601 668.3 601 654.8 601C641.3 601 627.7 601 614 601C600.3 601 586.7 601 573 601C559.3 601 545.7 601 532 601C518.3 601 504.7 601 491 601C477.3 601 463.7 601 450 601C436.3 601 422.7 601 409 601C395.3 601 381.7 601 368 601C354.3 601 340.7 601 327 601C313.3 601 299.7 601 286 601C272.3 601 258.7 601 245.2 601C231.7 601 218.3 601 204.8 601C191.3 601 177.7 601 164 601C150.3 601 136.7 601 123 601C109.3 601 95.7 601 82 601C68.3 601 54.7 601 41 601C27.3 601 13.7 601 6.8 601L0 601Z" fill="#f5f5dc" stroke-linecap="round" stroke-linejoin="miter"></path></svg>